<svg xmlns="http://www.w3.org/2000/svg" xmlns:xlink="http://www.w3.org/1999/xlink" width="384" zoomAndPan="magnify" viewBox="0 0 288 287.999989" height="384" preserveAspectRatio="xMidYMid meet" version="1.0"><defs><clipPath id="058f9ce823"><path d="M 161 201 L 222 201 L 222 227.980469 L 161 227.980469 Z M 161 201 " clip-rule="nonzero"/></clipPath><clipPath id="9d610e3ac8"><path d="M 205 86 L 234.933594 86 L 234.933594 208 L 205 208 Z M 205 86 " clip-rule="nonzero"/></clipPath><clipPath id="fbb4562a4d"><path d="M 80 201 L 141 201 L 141 227.980469 L 80 227.980469 Z M 80 201 " clip-rule="nonzero"/></clipPath><clipPath id="fe4c7a573d"><path d="M 66.933594 86 L 97 86 L 97 205 L 66.933594 205 Z M 66.933594 86 " clip-rule="nonzero"/></clipPath><clipPath id="22c40b014b"><path d="M 133 59.980469 L 169 59.980469 L 169 96 L 133 96 Z M 133 59.980469 " clip-rule="nonzero"/></clipPath></defs><g clip-path="url(#058f9ce823)"><path fill="#f6f5f9" d="M 219.214844 228.015625 L 164.078125 228.015625 C 162.628906 228.015625 161.453125 226.839844 161.453125 225.390625 L 161.453125 204.382812 C 161.453125 202.933594 162.628906 201.757812 164.078125 201.757812 L 219.214844 201.757812 C 220.664062 201.757812 221.839844 202.933594 221.839844 204.382812 L 221.839844 225.390625 C 221.839844 226.839844 220.664062 228.015625 219.214844 228.015625 Z M 166.703125 222.761719 L 216.589844 222.761719 L 216.589844 207.011719 L 166.703125 207.011719 Z M 166.703125 222.761719 " fill-opacity="1" fill-rule="nonzero"/></g><path fill="#f6f5f9" d="M 170.800781 207.011719 C 170.796875 207.011719 170.792969 207.011719 170.792969 207.011719 C 169.339844 207.007812 168.167969 205.828125 168.171875 204.378906 L 168.234375 183.453125 C 168.261719 174.429688 171.59375 165.761719 177.621094 159.050781 L 194.925781 139.785156 C 197.125 137.335938 200.148438 135.890625 203.433594 135.71875 C 206.722656 135.546875 209.878906 136.664062 212.320312 138.871094 C 214.902344 141.203125 216.382812 144.535156 216.382812 148.011719 C 216.382812 150.664062 215.546875 153.195312 213.964844 155.328125 L 199.113281 175.378906 C 198.25 176.546875 196.605469 176.789062 195.4375 175.925781 C 194.273438 175.0625 194.027344 173.417969 194.890625 172.253906 L 209.746094 152.199219 C 210.652344 150.980469 211.128906 149.53125 211.128906 148.011719 C 211.128906 146.015625 210.28125 144.105469 208.800781 142.769531 C 207.402344 141.503906 205.59375 140.863281 203.710938 140.960938 C 201.828125 141.0625 200.09375 141.886719 198.835938 143.292969 L 181.527344 162.5625 C 176.363281 168.3125 173.507812 175.734375 173.488281 183.464844 L 173.425781 204.390625 C 173.421875 205.839844 172.246094 207.011719 170.800781 207.011719 Z M 170.800781 207.011719 " fill-opacity="1" fill-rule="nonzero"/><path fill="#f6f5f9" d="M 208.054688 141.699219 C 206.605469 141.699219 205.429688 140.523438 205.429688 139.074219 L 205.429688 138.417969 C 205.429688 136.96875 206.605469 135.792969 208.054688 135.792969 C 209.503906 135.792969 210.679688 136.96875 210.679688 138.417969 L 210.679688 139.074219 C 210.679688 140.523438 209.503906 141.699219 208.054688 141.699219 Z M 208.054688 141.699219 " fill-opacity="1" fill-rule="nonzero"/><g clip-path="url(#9d610e3ac8)"><path fill="#f6f5f9" d="M 210.023438 207.011719 C 208.574219 207.011719 207.398438 205.835938 207.398438 204.382812 L 207.398438 201.878906 C 207.398438 192.363281 210.722656 183.0625 216.761719 175.6875 L 221.53125 169.875 C 226.808594 163.425781 229.714844 155.304688 229.714844 147.015625 L 229.714844 99.363281 C 229.714844 94.902344 226.078125 91.277344 221.609375 91.277344 C 219.535156 91.277344 217.5625 92.050781 216.054688 93.460938 C 214.554688 94.867188 213.652344 96.773438 213.515625 98.832031 L 210.945312 139.46875 C 210.855469 140.917969 209.609375 142.019531 208.160156 141.925781 C 206.710938 141.832031 205.613281 140.585938 205.703125 139.136719 L 208.277344 98.492188 C 208.5 95.09375 209.992188 91.945312 212.46875 89.625 C 214.953125 87.304688 218.199219 86.023438 221.609375 86.023438 C 228.972656 86.023438 234.96875 92.007812 234.96875 99.363281 L 234.96875 147.015625 C 234.96875 156.515625 231.636719 165.8125 225.59375 173.203125 L 220.824219 179.015625 C 215.554688 185.453125 212.648438 193.570312 212.648438 201.878906 L 212.648438 204.382812 C 212.648438 205.835938 211.472656 207.011719 210.023438 207.011719 Z M 210.023438 207.011719 " fill-opacity="1" fill-rule="nonzero"/></g><g clip-path="url(#fbb4562a4d)"><path fill="#f6f5f9" d="M 137.820312 228.015625 L 82.683594 228.015625 C 81.234375 228.015625 80.058594 226.839844 80.058594 225.390625 L 80.058594 204.382812 C 80.058594 202.933594 81.234375 201.757812 82.683594 201.757812 L 137.820312 201.757812 C 139.273438 201.757812 140.449219 202.933594 140.449219 204.382812 L 140.449219 225.390625 C 140.449219 226.839844 139.273438 228.015625 137.820312 228.015625 Z M 85.3125 222.761719 L 135.195312 222.761719 L 135.195312 207.011719 L 85.3125 207.011719 Z M 85.3125 222.761719 " fill-opacity="1" fill-rule="nonzero"/></g><path fill="#f6f5f9" d="M 131.003906 207.011719 C 129.558594 207.011719 128.382812 205.839844 128.378906 204.390625 L 128.316406 183.464844 C 128.296875 175.734375 125.441406 168.3125 120.277344 162.5625 L 102.96875 143.292969 C 101.710938 141.886719 99.976562 141.0625 98.09375 140.960938 C 96.210938 140.863281 94.402344 141.503906 93 142.769531 C 91.519531 144.105469 90.671875 146.015625 90.671875 148.007812 C 90.671875 149.527344 91.148438 150.976562 92.058594 152.199219 L 106.914062 172.253906 C 107.777344 173.417969 107.53125 175.0625 106.367188 175.925781 C 105.199219 176.789062 103.554688 176.542969 102.691406 175.378906 L 87.839844 155.328125 C 86.257812 153.191406 85.417969 150.660156 85.417969 148.007812 C 85.417969 144.527344 86.902344 141.199219 89.484375 138.871094 C 91.925781 136.664062 95.082031 135.546875 98.371094 135.71875 C 101.65625 135.890625 104.679688 137.335938 106.878906 139.785156 L 124.183594 159.050781 C 130.210938 165.761719 133.542969 174.429688 133.566406 183.453125 L 133.628906 204.375 C 133.636719 205.828125 132.464844 207.003906 131.011719 207.007812 C 131.011719 207.011719 131.007812 207.011719 131.003906 207.011719 Z M 131.003906 207.011719 " fill-opacity="1" fill-rule="nonzero"/><path fill="#f6f5f9" d="M 95.289062 163.777344 C 93.902344 163.777344 92.75 162.699219 92.667969 161.308594 L 92.65625 161.109375 C 92.570312 159.664062 93.675781 158.421875 95.121094 158.335938 C 96.527344 158.257812 97.734375 159.289062 97.886719 160.667969 C 97.90625 160.792969 97.914062 160.921875 97.914062 161.046875 L 97.914062 161.152344 C 97.914062 162.570312 96.785156 163.734375 95.367188 163.777344 C 95.339844 163.777344 95.3125 163.777344 95.289062 163.777344 Z M 95.289062 163.777344 " fill-opacity="1" fill-rule="nonzero"/><g clip-path="url(#fe4c7a573d)"><path fill="#f6f5f9" d="M 91.875 204.382812 C 90.425781 204.382812 89.25 203.210938 89.25 201.757812 C 89.25 193.402344 86.425781 185.535156 81.085938 179.015625 L 76.308594 173.207031 C 70.261719 165.816406 66.933594 156.515625 66.933594 147.015625 L 66.933594 99.363281 C 66.933594 95.816406 68.328125 92.464844 70.863281 89.929688 C 73.382812 87.414062 76.734375 86.023438 80.304688 86.023438 C 87.308594 86.023438 93.160156 91.496094 93.617188 98.484375 L 96.339844 138.953125 C 96.4375 140.398438 95.34375 141.652344 93.894531 141.75 C 92.449219 141.847656 91.199219 140.753906 91.101562 139.304688 L 88.378906 98.832031 C 88.101562 94.59375 84.554688 91.277344 80.304688 91.277344 C 78.136719 91.277344 76.105469 92.117188 74.578125 93.644531 C 73.035156 95.1875 72.183594 97.21875 72.183594 99.363281 L 72.183594 147.015625 C 72.183594 155.308594 75.089844 163.425781 80.367188 169.875 L 85.144531 175.683594 C 91.179688 183.050781 94.5 192.3125 94.5 201.757812 C 94.5 203.210938 93.324219 204.382812 91.875 204.382812 Z M 91.875 204.382812 " fill-opacity="1" fill-rule="nonzero"/></g><path fill="#f6f5f9" d="M 93.84375 141.699219 C 92.394531 141.699219 91.21875 140.523438 91.21875 139.074219 L 91.21875 138.417969 C 91.21875 136.96875 92.394531 135.792969 93.84375 135.792969 C 95.292969 135.792969 96.46875 136.96875 96.46875 138.417969 L 96.46875 139.074219 C 96.46875 140.523438 95.292969 141.699219 93.84375 141.699219 Z M 93.84375 141.699219 " fill-opacity="1" fill-rule="nonzero"/><path fill="#f6f5f9" d="M 91.886719 207.011719 C 90.445312 207.011719 89.269531 205.84375 89.261719 204.398438 L 89.25 201.757812 C 89.25 200.308594 90.425781 199.132812 91.875 199.132812 C 93.324219 199.132812 94.5 200.308594 94.5 201.757812 L 94.511719 204.371094 C 94.519531 205.820312 93.351562 207.003906 91.902344 207.011719 C 91.898438 207.011719 91.890625 207.011719 91.886719 207.011719 Z M 91.886719 207.011719 " fill-opacity="1" fill-rule="nonzero"/><path fill="#f6f5f9" d="M 198.210938 130.871094 L 175.5625 130.871094 C 174.113281 130.871094 172.9375 129.695312 172.9375 128.242188 C 172.9375 126.792969 174.113281 125.617188 175.5625 125.617188 L 195.585938 125.617188 L 195.585938 116.429688 C 195.585938 112.910156 194.222656 109.613281 191.753906 107.148438 C 189.273438 104.667969 185.984375 103.300781 182.484375 103.300781 C 179.191406 103.300781 176.046875 104.53125 173.621094 106.769531 C 172.554688 107.753906 170.894531 107.6875 169.910156 106.621094 C 168.929688 105.554688 168.996094 103.894531 170.058594 102.910156 C 173.457031 99.777344 177.871094 98.050781 182.484375 98.050781 C 187.386719 98.050781 191.996094 99.960938 195.464844 103.433594 C 198.925781 106.890625 200.835938 111.507812 200.835938 116.429688 L 200.835938 128.242188 C 200.835938 129.695312 199.660156 130.871094 198.210938 130.871094 Z M 198.210938 130.871094 " fill-opacity="1" fill-rule="nonzero"/><path fill="#f6f5f9" d="M 182.457031 103.300781 C 175.578125 103.300781 169.984375 97.707031 169.984375 90.828125 C 169.984375 83.953125 175.578125 78.359375 182.457031 78.359375 C 189.332031 78.359375 194.925781 83.953125 194.925781 90.828125 C 194.925781 97.707031 189.332031 103.300781 182.457031 103.300781 Z M 182.457031 83.609375 C 178.476562 83.609375 175.234375 86.847656 175.234375 90.828125 C 175.234375 94.8125 178.476562 98.050781 182.457031 98.050781 C 186.4375 98.050781 189.675781 94.8125 189.675781 90.828125 C 189.675781 86.847656 186.4375 83.609375 182.457031 83.609375 Z M 182.457031 83.609375 " fill-opacity="1" fill-rule="nonzero"/><path fill="#f6f5f9" d="M 126.335938 130.871094 L 103.691406 130.871094 C 102.238281 130.871094 101.0625 129.695312 101.0625 128.242188 L 101.0625 116.429688 C 101.0625 106.292969 109.296875 98.050781 119.414062 98.050781 C 124.03125 98.050781 128.441406 99.777344 131.839844 102.910156 C 132.90625 103.894531 132.972656 105.554688 131.988281 106.621094 C 131.003906 107.6875 129.34375 107.753906 128.277344 106.769531 C 125.855469 104.53125 122.707031 103.300781 119.414062 103.300781 C 112.191406 103.300781 106.316406 109.191406 106.316406 116.429688 L 106.316406 125.617188 L 126.335938 125.617188 C 127.785156 125.617188 128.960938 126.792969 128.960938 128.242188 C 128.960938 129.695312 127.785156 130.871094 126.335938 130.871094 Z M 126.335938 130.871094 " fill-opacity="1" fill-rule="nonzero"/><path fill="#f6f5f9" d="M 119.441406 103.300781 C 112.566406 103.300781 106.972656 97.707031 106.972656 90.828125 C 106.972656 83.953125 112.566406 78.359375 119.441406 78.359375 C 126.320312 78.359375 131.914062 83.953125 131.914062 90.828125 C 131.914062 97.707031 126.320312 103.300781 119.441406 103.300781 Z M 119.441406 83.609375 C 115.460938 83.609375 112.222656 86.847656 112.222656 90.828125 C 112.222656 94.8125 115.460938 98.050781 119.441406 98.050781 C 123.425781 98.050781 126.664062 94.8125 126.664062 90.828125 C 126.664062 86.847656 123.425781 83.609375 119.441406 83.609375 Z M 119.441406 83.609375 " fill-opacity="1" fill-rule="nonzero"/><path fill="#f6f5f9" d="M 175.453125 133.496094 L 126.445312 133.496094 C 124.996094 133.496094 123.820312 132.320312 123.820312 130.871094 L 123.820312 117.742188 C 123.820312 102.78125 135.988281 90.609375 150.949219 90.609375 C 165.910156 90.609375 178.082031 102.78125 178.082031 117.742188 L 178.082031 130.871094 C 178.082031 132.320312 176.90625 133.496094 175.453125 133.496094 Z M 129.070312 128.242188 L 172.828125 128.242188 L 172.828125 117.742188 C 172.828125 105.675781 163.015625 95.863281 150.949219 95.863281 C 138.886719 95.863281 129.070312 105.675781 129.070312 117.742188 Z M 129.070312 128.242188 " fill-opacity="1" fill-rule="nonzero"/><g clip-path="url(#22c40b014b)"><path fill="#f6f5f9" d="M 150.949219 95.863281 C 141.058594 95.863281 133.007812 87.8125 133.007812 77.921875 C 133.007812 68.027344 141.058594 59.980469 150.949219 59.980469 C 160.84375 59.980469 168.890625 68.027344 168.890625 77.921875 C 168.890625 87.8125 160.84375 95.863281 150.949219 95.863281 Z M 150.949219 65.230469 C 143.953125 65.230469 138.257812 70.921875 138.257812 77.921875 C 138.257812 84.917969 143.953125 90.609375 150.949219 90.609375 C 157.945312 90.609375 163.640625 84.917969 163.640625 77.921875 C 163.640625 70.921875 157.945312 65.230469 150.949219 65.230469 Z M 150.949219 65.230469 " fill-opacity="1" fill-rule="nonzero"/></g></svg>