<svg xmlns="http://www.w3.org/2000/svg" xmlns:xlink="http://www.w3.org/1999/xlink" width="384" zoomAndPan="magnify" viewBox="0 0 288 287.999989" height="384" preserveAspectRatio="xMidYMid meet" version="1.0"><defs><clipPath id="85f6da5c9f"><path d="M 216 156 L 238.574219 156 L 238.574219 165 L 216 165 Z M 216 156 " clip-rule="nonzero"/></clipPath></defs><path fill="#f6f5f9" d="M 168.222656 126.949219 C 154.925781 121.347656 138.40625 119.878906 125.886719 128.242188 C 120.617188 131.753906 116.414062 136.644531 114.148438 142.582031 C 111.433594 149.699219 112.390625 157.703125 114.125 164.953125 C 115.726562 171.644531 118.347656 178.382812 122.53125 183.894531 C 124.175781 186.054688 126.265625 188.386719 128.667969 190.210938 C 129.46875 191.101562 130.378906 191.921875 131.203125 192.613281 C 131.203125 192.636719 131.179688 192.65625 131.179688 192.65625 C 130.132812 195.167969 130.757812 198.683594 131.089844 201.308594 C 131.46875 204.175781 132.15625 206.953125 133.449219 209.554688 C 134.648438 211.980469 136.359375 213.914062 138.382812 215.382812 C 138.296875 215.605469 138.25 215.828125 138.273438 216.070312 C 138.804688 220.5625 140.519531 225.300781 144.410156 227.96875 C 146.03125 229.078125 147.835938 229.65625 149.722656 229.878906 C 150.457031 232.746094 153.191406 234.59375 156.105469 234.925781 C 159.550781 235.328125 162.644531 232.902344 164.175781 229.992188 C 164.265625 229.8125 164.355469 229.636719 164.445312 229.457031 C 164.488281 229.390625 164.511719 229.300781 164.554688 229.234375 C 164.621094 229.058594 164.710938 228.878906 164.777344 228.699219 C 164.800781 228.65625 164.820312 228.632812 164.820312 228.613281 C 164.933594 228.390625 165.023438 228.144531 165.109375 227.921875 C 165.179688 227.746094 165.246094 227.542969 165.289062 227.34375 C 165.289062 227.324219 165.3125 227.277344 165.3125 227.253906 C 167.46875 226.367188 169.425781 225.121094 170.824219 223.253906 C 172.117188 221.542969 172.871094 219.382812 172.78125 217.226562 C 172.714844 215.9375 172.269531 214.671875 171.425781 213.890625 C 172.027344 213.425781 172.582031 212.914062 173.09375 212.335938 C 175.273438 209.867188 176.25 206.710938 176.808594 203.53125 C 177.296875 200.730469 177.519531 197.75 176.761719 194.96875 C 176.429688 193.703125 175.828125 192.414062 174.851562 191.523438 C 174.894531 191.324219 174.917969 191.121094 174.9375 190.902344 C 174.960938 190.5 174.917969 190.078125 174.828125 189.675781 C 177.761719 186.652344 180.03125 182.785156 181.765625 179.136719 C 184.566406 173.222656 186.210938 166.839844 186.523438 160.304688 C 186.835938 153.8125 185.746094 147.183594 183.167969 141.226562 C 180.164062 134.378906 174.984375 129.796875 168.222656 126.949219 Z M 154.238281 229.835938 C 154.28125 229.835938 154.347656 229.8125 154.394531 229.8125 C 154.460938 229.925781 154.550781 230.011719 154.636719 230.101562 C 154.550781 230.035156 154.4375 229.992188 154.347656 229.925781 C 154.347656 229.925781 154.304688 229.878906 154.238281 229.835938 Z M 164.777344 228.613281 C 164.753906 228.613281 164.753906 228.613281 164.777344 228.613281 C 164.820312 228.457031 164.820312 228.457031 164.777344 228.613281 Z M 167.933594 217.960938 C 167.824219 219.382812 166.980469 220.652344 165.890625 221.519531 C 165.265625 222.007812 164.578125 222.410156 163.820312 222.765625 C 163.242188 222.628906 162.644531 222.765625 162.109375 223.253906 C 162.019531 223.34375 161.929688 223.429688 161.84375 223.542969 C 159.976562 224.164062 157.972656 224.542969 156.195312 224.921875 C 153.082031 225.566406 149.390625 226.011719 146.609375 224.121094 C 144.433594 222.628906 143.5 220.050781 142.632812 217.605469 C 144.1875 218.183594 145.855469 218.5625 147.566406 218.761719 C 153.394531 219.429688 160.042969 218.539062 165.621094 216.738281 C 166.3125 216.515625 167 216.269531 167.667969 215.980469 C 167.734375 216.648438 167.980469 217.273438 167.933594 217.960938 Z M 170.714844 206.554688 C 168.359375 212.269531 160.554688 213.226562 155.195312 213.914062 C 149.300781 214.671875 142.34375 214.492188 138.429688 209.289062 C 136.628906 206.910156 135.78125 203.953125 135.25 201.039062 C 134.914062 199.195312 134.9375 197.171875 134.671875 195.257812 C 135.847656 196.058594 137.050781 196.792969 138.296875 197.460938 C 143.03125 199.929688 148.234375 201.375 153.570312 201.664062 C 159.328125 201.972656 165.132812 200.90625 169.757812 197.304688 C 170.359375 196.835938 171.003906 196.347656 171.648438 195.816406 C 171.871094 196.570312 172.027344 197.347656 172.070312 198.128906 C 172.25 200.863281 171.78125 204.019531 170.714844 206.554688 Z M 156.640625 169.488281 C 156.285156 170.53125 155.726562 170.199219 155.550781 169.332031 C 155.394531 168.597656 155.484375 167.773438 155.503906 167.042969 C 155.527344 166.6875 155.527344 166.328125 155.550781 165.953125 C 156.328125 167.152344 156.972656 168.507812 156.640625 169.488281 Z M 154.816406 173.890625 C 156.660156 174.46875 158.617188 173.488281 159.640625 171.933594 C 161.175781 169.578125 160.332031 166.886719 159.128906 164.574219 C 158.484375 163.351562 157.707031 162.039062 156.773438 160.835938 C 156.816406 160.769531 156.863281 160.683594 156.90625 160.617188 C 157.816406 159.214844 159.664062 157.992188 161.351562 158.746094 C 162.777344 159.390625 163.398438 161.195312 163.710938 162.59375 C 164.554688 166.261719 163.820312 170.355469 162.976562 173.957031 C 161.953125 178.226562 160.417969 182.363281 159.21875 186.585938 C 158.328125 189.699219 157.328125 193.300781 157.441406 196.683594 C 156.972656 196.726562 156.484375 196.75 156.015625 196.769531 C 156.015625 196.75 156.015625 196.703125 156.015625 196.683594 C 155.949219 189.632812 151.703125 183.363281 148.902344 177.136719 C 147.457031 173.933594 146.1875 170.53125 146.054688 166.996094 C 145.964844 164.460938 146.988281 159.414062 150.65625 160.726562 C 151.304688 160.949219 151.902344 161.371094 152.4375 161.859375 C 151.480469 165.285156 150.414062 172.511719 154.816406 173.890625 Z M 177.585938 175.246094 C 174.9375 181.25 170.582031 185.785156 166.914062 191.101562 C 166.402344 191.835938 166.554688 192.566406 167.023438 193.078125 C 165.421875 194.347656 163.734375 195.347656 161.730469 195.925781 C 161.640625 195.949219 161.554688 195.96875 161.441406 195.992188 C 161.621094 194.4375 161.777344 192.878906 162.109375 191.324219 C 162.710938 188.5 163.53125 185.71875 164.355469 182.960938 C 165.890625 177.78125 167.511719 172.511719 167.644531 167.0625 C 167.757812 162.90625 167.023438 157.347656 162.710938 155.414062 C 159.398438 153.921875 156.195312 155.589844 154.195312 158.214844 C 152.726562 157.101562 151.015625 156.414062 149.058594 156.546875 C 144.386719 156.878906 142.164062 161.683594 141.964844 165.820312 C 141.675781 171.3125 144.007812 176.648438 146.433594 181.449219 C 148.96875 186.453125 151.457031 191.300781 153.015625 196.726562 C 151.835938 196.636719 150.65625 196.503906 149.523438 196.28125 C 145.921875 195.613281 142.429688 194.390625 139.207031 192.613281 C 139.363281 192.257812 139.339844 191.789062 139.027344 191.523438 C 137.140625 189.898438 135.003906 188.632812 132.957031 187.1875 C 130.933594 185.742188 129.15625 183.960938 127.621094 182.050781 C 124.332031 177.9375 122.039062 173 120.460938 167.996094 C 118.550781 161.949219 117.082031 155.210938 117.972656 148.851562 C 118.75 143.25 121.75 138.402344 125.976562 134.710938 C 135.828125 126.128906 149.925781 126.304688 161.730469 130.128906 C 167.800781 132.085938 173.539062 134.933594 176.851562 140.625 C 179.742188 145.5625 180.988281 151.5 181.097656 157.167969 C 181.296875 163.351562 180.074219 169.597656 177.585938 175.246094 Z M 177.585938 175.246094 " fill-opacity="1" fill-rule="nonzero"/><path fill="#f6f5f9" d="M 128.289062 150.988281 C 128.355469 149.921875 128.511719 148.898438 128.800781 147.851562 C 129.089844 146.761719 129.554688 145.738281 129.980469 144.695312 C 130.378906 143.738281 130.847656 142.847656 131.355469 141.960938 C 131.957031 140.9375 132.269531 140.046875 133.136719 139.292969 C 134.335938 138.269531 132.402344 136.378906 131.425781 137.578125 C 130.644531 138.558594 129.667969 139.269531 128.933594 140.3125 C 128.199219 141.359375 127.644531 142.539062 127.199219 143.738281 C 126.777344 144.871094 126.621094 146.140625 126.53125 147.339844 C 126.421875 148.542969 126.488281 149.785156 126.644531 150.988281 C 126.777344 152.011719 128.222656 152.078125 128.289062 150.988281 Z M 128.289062 150.988281 " fill-opacity="1" fill-rule="nonzero"/><path fill="#f6f5f9" d="M 127.398438 158.769531 C 127.175781 157.835938 125.597656 158.015625 125.6875 158.992188 C 126.398438 166.996094 129.757812 174.421875 134.960938 180.515625 C 135.539062 181.183594 136.695312 180.316406 136.203125 179.558594 C 132.023438 173.246094 129.15625 166.128906 127.398438 158.769531 Z M 127.398438 158.769531 " fill-opacity="1" fill-rule="nonzero"/><path fill="#f6f5f9" d="M 167.757812 93.953125 C 169.46875 92.328125 170.535156 89.839844 171.691406 87.816406 C 172.828125 85.816406 173.984375 83.835938 175.117188 81.8125 C 176.25 79.8125 177.386719 77.808594 178.519531 75.808594 C 179.121094 74.742188 179.742188 73.675781 180.320312 72.605469 C 181.007812 71.363281 181.121094 70.648438 180.675781 69.339844 C 180.5 68.828125 180.03125 68.539062 179.476562 68.671875 C 178.140625 68.960938 177.585938 69.40625 176.894531 70.605469 C 176.296875 71.671875 175.695312 72.738281 175.09375 73.808594 C 173.960938 75.808594 172.847656 77.832031 171.714844 79.832031 C 170.582031 81.835938 169.492188 83.859375 168.378906 85.882812 C 167.246094 87.925781 165.667969 90.152344 165.15625 92.464844 C 164.867188 93.929688 166.601562 95.019531 167.757812 93.953125 Z M 167.757812 93.953125 " fill-opacity="1" fill-rule="nonzero"/><path fill="#f6f5f9" d="M 234.621094 99.757812 C 224.28125 102.625 214.628906 108.25 206.667969 115.410156 C 206.003906 116.011719 206.847656 117.054688 207.605469 116.609375 C 216.742188 111.363281 226.058594 106.40625 235.265625 101.289062 C 236.109375 100.824219 235.53125 99.488281 234.621094 99.757812 Z M 234.621094 99.757812 " fill-opacity="1" fill-rule="nonzero"/><g clip-path="url(#85f6da5c9f)"><path fill="#f6f5f9" d="M 237.933594 162.214844 C 237.308594 161.570312 236.375 161.414062 235.53125 161.214844 C 234.753906 161.039062 233.976562 160.816406 233.195312 160.617188 C 231.507812 160.191406 229.839844 159.792969 228.171875 159.304688 C 226.503906 158.8125 224.859375 158.304688 223.234375 157.703125 C 221.65625 157.101562 220.011719 156.210938 218.320312 156.035156 C 217.03125 155.902344 216.566406 157.636719 217.320312 158.4375 C 218.566406 159.75 220.65625 160.4375 222.277344 161.105469 C 223.878906 161.75 225.527344 162.371094 227.191406 162.839844 C 228.859375 163.304688 230.574219 163.726562 232.285156 163.949219 C 233.242188 164.085938 234.175781 164.171875 235.132812 164.21875 C 236 164.261719 236.976562 164.328125 237.734375 163.839844 C 238.289062 163.507812 238.421875 162.726562 237.933594 162.214844 Z M 237.933594 162.214844 " fill-opacity="1" fill-rule="nonzero"/></g><path fill="#f6f5f9" d="M 124.085938 57.441406 C 124.84375 60.488281 125.398438 63.578125 126.289062 66.582031 C 127.199219 69.761719 128.378906 72.875 129.734375 75.898438 C 130.402344 77.363281 131.113281 78.808594 131.914062 80.210938 C 132.667969 81.523438 133.449219 83.078125 135.070312 83.367188 C 135.648438 83.480469 136.070312 83.214844 136.292969 82.679688 C 136.871094 81.210938 136.050781 79.832031 135.472656 78.5 C 134.757812 76.921875 134.070312 75.320312 133.402344 73.71875 C 132.113281 70.539062 130.957031 67.316406 130 64.023438 C 128.332031 58.21875 127.308594 52.371094 122.417969 48.371094 C 121.75 47.8125 120.574219 48.523438 121.128906 49.371094 C 122.730469 51.773438 123.398438 54.683594 124.085938 57.441406 Z M 124.085938 57.441406 " fill-opacity="1" fill-rule="nonzero"/><path fill="#f6f5f9" d="M 65.050781 103.667969 C 65.917969 104.625 66.71875 105.582031 67.695312 106.449219 C 69.742188 108.273438 71.964844 109.875 74.410156 111.140625 C 76.792969 112.363281 79.304688 113.386719 81.882812 114.144531 C 83.152344 114.519531 84.441406 114.808594 85.753906 114.988281 C 86.464844 115.078125 87.199219 115.230469 87.886719 115.097656 C 88.53125 114.964844 89.085938 114.675781 89.730469 114.566406 C 90.445312 114.453125 90.511719 113.386719 89.933594 113.074219 C 89.375 112.765625 89 112.320312 88.464844 111.984375 C 87.976562 111.675781 87.417969 111.519531 86.863281 111.320312 C 85.640625 110.894531 84.417969 110.496094 83.21875 110.074219 C 80.90625 109.25 78.660156 108.273438 76.480469 107.160156 C 74.324219 106.050781 72.210938 104.871094 70.097656 103.648438 C 69.007812 103.023438 67.875 102.378906 66.828125 101.691406 C 65.785156 100.980469 64.9375 100.046875 63.78125 99.46875 C 62.984375 99.066406 62.226562 99.867188 62.605469 100.644531 C 63.183594 101.847656 64.160156 102.691406 65.050781 103.667969 Z M 65.050781 103.667969 " fill-opacity="1" fill-rule="nonzero"/><path fill="#f6f5f9" d="M 78.570312 176.582031 C 73.699219 178.359375 69.007812 180.695312 64.25 182.71875 C 61.847656 183.742188 59.46875 184.761719 57.066406 185.785156 C 54.867188 186.742188 52.152344 187.699219 50.464844 189.433594 C 49.574219 190.34375 50.242188 191.835938 51.488281 191.878906 C 53.933594 191.96875 56.554688 190.722656 58.78125 189.832031 C 61.203125 188.855469 63.605469 187.832031 65.984375 186.785156 C 70.71875 184.695312 75.566406 182.695312 80.058594 180.09375 C 81.882812 179.046875 80.660156 175.800781 78.570312 176.582031 Z M 78.570312 176.582031 " fill-opacity="1" fill-rule="nonzero"/><path fill="#f6f5f9" d="M 100.09375 207.910156 C 99.492188 208.109375 98.828125 208.3125 98.335938 208.710938 C 97.804688 209.15625 97.335938 209.667969 96.847656 210.15625 C 95.914062 211.089844 95.003906 212.023438 94.089844 212.980469 C 92.246094 214.9375 90.421875 216.917969 88.597656 218.917969 C 86.820312 220.851562 85.039062 222.785156 83.285156 224.765625 C 82.394531 225.742188 81.636719 226.878906 80.703125 227.8125 C 80.460938 228.054688 80.191406 228.234375 79.902344 228.457031 C 79.816406 228.523438 79.726562 228.589844 79.660156 228.65625 C 79.148438 228.546875 78.546875 228.921875 78.570312 229.5 C 78.59375 230.503906 78.992188 231.148438 79.925781 231.570312 C 81.171875 232.125 82.574219 231.4375 83.507812 230.613281 C 85.796875 228.632812 87.753906 226.167969 89.777344 223.921875 C 91.84375 221.585938 93.933594 219.273438 95.980469 216.9375 C 96.980469 215.78125 97.960938 214.625 98.9375 213.449219 C 99.472656 212.800781 100.027344 212.136719 100.539062 211.46875 C 101.074219 210.777344 101.292969 210.179688 101.472656 209.332031 C 101.695312 208.535156 100.984375 207.644531 100.09375 207.910156 Z M 100.09375 207.910156 " fill-opacity="1" fill-rule="nonzero"/><path fill="#f6f5f9" d="M 122.019531 224.433594 C 122.085938 223.207031 120.285156 223.03125 119.929688 224.144531 C 119.773438 224.652344 119.574219 225.097656 119.351562 225.566406 C 119.128906 226.054688 119.015625 226.566406 118.90625 227.101562 C 118.660156 228.078125 118.394531 229.035156 118.195312 230.011719 C 117.75 232.015625 117.503906 234.058594 117.015625 236.039062 C 116.792969 236.996094 116.394531 237.90625 116.902344 238.863281 C 117.414062 239.796875 118.707031 240.175781 119.527344 239.375 C 119.792969 239.105469 119.863281 238.816406 119.929688 238.460938 C 119.929688 238.460938 119.929688 238.441406 119.929688 238.441406 C 119.929688 238.375 119.949219 238.328125 119.949219 238.261719 C 120.039062 238.105469 120.171875 237.839844 120.171875 237.816406 C 120.460938 237.21875 120.550781 236.574219 120.683594 235.925781 C 120.90625 234.683594 121.128906 233.414062 121.328125 232.148438 C 121.527344 230.835938 121.683594 229.5 121.839844 228.191406 C 121.90625 227.566406 122.039062 226.921875 122.0625 226.300781 C 122.085938 225.675781 121.996094 225.078125 122.019531 224.433594 Z M 118.773438 238.773438 C 118.75 238.773438 118.75 238.773438 118.773438 238.773438 C 118.792969 238.773438 118.816406 238.773438 118.859375 238.773438 C 118.816406 238.773438 118.792969 238.773438 118.773438 238.773438 Z M 118.773438 238.773438 " fill-opacity="1" fill-rule="nonzero"/><path fill="#f6f5f9" d="M 119.949219 238.394531 C 119.949219 238.417969 119.949219 238.441406 119.929688 238.460938 C 119.90625 238.664062 119.949219 238.375 119.949219 238.394531 Z M 119.949219 238.394531 " fill-opacity="1" fill-rule="nonzero"/><path fill="#f6f5f9" d="M 222.902344 207.355469 C 222.902344 207.355469 222.878906 207.308594 222.855469 207.265625 C 222.855469 207.242188 222.746094 206.976562 222.703125 206.933594 C 222.566406 206.710938 222.367188 206.53125 222.144531 206.375 C 221.835938 206.152344 221.5 206.199219 221.257812 206.375 C 221.234375 206.375 221.234375 206.355469 221.210938 206.355469 C 221.078125 206.242188 220.945312 206.132812 220.8125 206 C 220.1875 205.421875 219.566406 204.84375 218.921875 204.285156 C 217.5 203.042969 216.097656 201.707031 214.496094 200.683594 C 213.628906 200.128906 212.429688 200.441406 211.828125 201.21875 C 211.160156 202.085938 211.316406 203.128906 211.984375 203.929688 C 213.25 205.441406 214.808594 206.710938 216.277344 208.023438 C 216.632812 208.355469 217.007812 208.667969 217.386719 208.976562 C 217.808594 209.3125 218.210938 209.710938 218.699219 209.933594 C 219.457031 210.3125 220.1875 210.488281 221.035156 210.335938 C 221.835938 210.179688 222.523438 209.621094 222.746094 208.84375 C 223.011719 208.398438 223.125 207.886719 222.902344 207.355469 Z M 222.347656 207.089844 C 222.347656 207.089844 222.367188 207.089844 222.367188 207.109375 C 222.636719 207.464844 222.636719 207.464844 222.347656 207.089844 Z M 220.855469 206.976562 C 220.855469 207 220.832031 207.019531 220.832031 207.066406 C 220.832031 207.019531 220.832031 207 220.855469 206.976562 Z M 220.855469 206.976562 " fill-opacity="1" fill-rule="nonzero"/></svg>